<?xml version="1.0" encoding="UTF-8"?>
<svg width="33px" height="48px" viewBox="0 0 33 48" version="1.1" xmlns="http://www.w3.org/2000/svg" xmlns:xlink="http://www.w3.org/1999/xlink">
    <!-- Generator: Sketch 53.2 (72643) - https://sketchapp.com -->
    <title>icon-khayal</title>
    <desc>Created with Sketch.</desc>
    <defs>
        <polygon id="path-1" points="0 0.0377263158 33.3313312 0.0377263158 33.3313312 48.6474303 0 48.6474303"></polygon>
    </defs>
    <g id="5.3" stroke="none" stroke-width="1" fill="none" fill-rule="evenodd">
        <g id="V3-Desktop-Home---services" transform="translate(-24.000000, -506.000000)">
            <g id="Group-4" transform="translate(24.000000, 388.000000)">
                <g id="khayal" transform="translate(0.000000, 118.000000)">
                    <g id="Group-6" transform="translate(0.000000, -0.480000)">
                        <g id="Group-3">
                            <mask id="mask-2" fill="white">
                                <use xlink:href="#path-1"></use>
                            </mask>
                            <g id="Clip-2"></g>
                            <path d="M19.4734456,22.6940235 C18.8542103,22.4051319 18.2162912,22.2392867 17.5570191,22.0734415 C14.9572985,21.4956582 12.2561515,22.0119183 10.4411515,24.0368347 C10.0701441,24.5129709 9.55500441,24.924909 9.57635735,25.5668904 C9.26673971,30.3817511 11.5755265,34.2871381 15.1441368,37.4890204 C17.8853206,39.7413053 21.1443132,41.581652 24.8330338,40.7123022 C26.4425118,39.1207232 26.8962618,36.951361 26.6480338,34.6990762 C26.4425118,35.464104 26.0501515,36.1676087 25.4122324,36.7667913 C24.4006368,37.5104198 23.4103941,38.2941721 22.3400779,38.8746303 C20.1754235,39.7413053 17.9467103,38.748909 16.2571588,37.4890204 C13.4332324,35.258135 11.6582691,31.9305313 12.8139971,28.3969585 C13.5560118,27.0140235 14.0711515,25.545491 15.0400412,24.2428037 C16.1343794,22.8999926 17.7838941,22.4452557 19.4734456,22.6940235 L19.4734456,22.6940235 Z M18.3604235,25.649813 C16.8336882,25.2967232 15.3096221,25.6685375 14.2579897,26.7037325 C13.8656294,28.4397573 14.3193794,30.1543827 15.0186882,31.5988409 C14.9359456,30.8552124 15.1014309,30.2159059 15.3710118,29.6167232 C16.3399015,28.2739121 16.8336882,26.5592867 18.3604235,25.649813 L18.3604235,25.649813 Z M18.7100779,28.0866675 L18.7100779,28.0251443 C18.0908426,28.0037449 17.4128868,28.0037449 16.9377838,28.3140359 C16.8123353,28.9961412 16.9591368,29.6996458 17.1219529,30.2774291 C17.6370926,29.5552 18.1735853,28.830296 18.7100779,28.0866675 L18.7100779,28.0866675 Z M18.7314309,30.2373053 L19.1237912,29.6782464 L18.6486882,29.6782464 L18.7314309,30.2373053 Z M22.7938279,34.9879678 C22.9166074,34.6589523 22.9379603,34.2042155 22.8765706,33.8511257 L21.7208426,34.9050452 C22.0518132,35.0093672 22.4415044,35.0307666 22.7938279,34.9879678 L22.7938279,34.9879678 Z M23.8454603,37.2402526 C24.2992103,36.4351009 24.5447691,35.5042279 24.4620265,34.4931071 L24.3392471,34.6375529 C23.2048721,35.4239802 22.2786882,36.745392 20.9361221,37.0128842 C21.8035853,37.3231752 22.8952544,37.5104198 23.8454603,37.2402526 L23.8454603,37.2402526 Z M26.6907397,17.1569337 C28.4229971,19.2433734 29.9684162,21.3913362 31.2255706,23.6864198 C30.4622029,24.4300483 29.6801515,25.1522774 28.9167838,25.9387046 C24.7316074,19.8211567 18.4004603,15.4824322 10.8762176,16.3089833 C7.08073235,16.6807975 3.26656324,19.532265 1.96670294,23.2102836 C1.76118088,23.8094663 1.55565882,24.4300483 1.43287941,25.0693548 C1.84392353,34.2657387 9.53632059,42.8201412 17.9680632,45.79733 C20.1113647,46.5195591 22.7324382,46.9528966 25.0812618,46.3751133 C29.0609162,44.0185065 30.3794603,39.5139368 29.6187618,35.0307666 C29.4746294,34.4101845 29.3491809,33.7494786 29.1223059,33.150296 C29.3918868,36.0418873 28.6498721,38.9361536 26.0715044,40.5277325 C24.4620265,41.3114848 23.0207029,42.5098502 21.0829235,42.4697263 C17.6797985,42.4483269 14.9172618,40.856748 12.4616735,38.5643393 C9.32812941,35.4239802 7.43305588,31.3099492 8.60746765,26.8481783 C9.51496765,24.4300483 9.84326912,21.5999802 12.2988574,19.946878 C15.2055265,17.630395 19.7617103,18.6655901 22.5856368,20.4417387 C28.1133794,23.9539121 32.2371662,29.5953238 32.3599456,36.1248099 C32.4026515,40.2174415 30.7317838,44.2244755 26.9176147,46.0648223 C24.6275118,46.8298502 22.4415044,47.8837697 19.7830632,47.6564012 C12.0105926,47.0572186 4.46232794,40.546457 1.84392353,33.251943 C0.626805882,30.3202279 0.354204044,26.5164879 0.538373162,23.2102836 C0.807954044,19.0989276 3.88579853,15.0678192 7.86545294,13.4361164 C10.4838574,12.2992743 14.0097618,12.136104 16.8550412,12.8155344 C13.4946221,10.0068656 9.86462206,7.87762724 6.09048971,6.08007926 C6.23729118,4.38685325 6.56559265,2.66955294 6.75243088,0.997726316 C11.5354897,3.49610402 16.0089309,6.76218452 20.2368132,10.6060483 C22.4228206,12.7138873 24.7316074,14.8404508 26.6907397,17.1569337 Z" id="Fill-1" fill="#FFFFFF" mask="url(#mask-2)"></path>
                        </g>
                        <path d="M25.7892511,7.91477965 C26.3328935,8.49593635 26.3103591,9.50043563 25.9188239,10.1592469 C25.6371438,10.6051344 25.1160358,10.9332875 24.5921109,11.010942 C23.786506,11.1462113 23.0682218,10.7980183 22.656969,10.1993267 C22.2203649,9.59813008 22.1978305,8.59112581 22.6766866,7.99243421 C23.135825,7.41127752 23.8738268,7.08312438 24.7019661,7.2384335 C25.1160358,7.33362296 25.507571,7.56658663 25.7892511,7.91477965" id="Fill-4" fill="#FFFFFF"></path>
                    </g>
                </g>
            </g>
        </g>
    </g>
</svg>