<?xml version="1.0" encoding="UTF-8"?>
<svg width="142px" height="112px" viewBox="0 0 142 112" version="1.1" xmlns="http://www.w3.org/2000/svg" xmlns:xlink="http://www.w3.org/1999/xlink">
    <!-- Generator: Sketch 53.2 (72643) - https://sketchapp.com -->
    <title>logo-khayal-black</title>
    <desc>Created with Sketch.</desc>
    <g id="5.3" stroke="none" stroke-width="1" fill="none" fill-rule="evenodd">
        <g id="V3-Desktop-Home" transform="translate(-1234.000000, -32.000000)" fill-rule="nonzero">
            <g id="logo-khayal-black" transform="translate(1234.000000, 32.000000)">
                <g id="Group" transform="translate(48.000000, 0.000000)">
                    <path d="M28.3059781,14.1409334 C31.4908578,17.2419035 34.8580047,20.3738166 37.7107264,23.7775423 C40.2366862,26.8499964 42.4886455,30.0086053 44.3233089,33.3868486 C43.2087209,34.4819868 42.0677522,35.5449685 40.9555624,36.7001724 C34.8580047,27.6988043 25.6313267,21.3154533 14.6647162,22.5319364 C9.13494487,23.0779887 3.57639447,27.2728835 1.68417302,32.6860816 C1.3831923,33.5688661 1.08221157,34.4813801 0.902942175,35.4236236 C1.5037045,48.9554053 12.7113393,61.5413032 24.9999866,65.9236759 C28.1255096,66.9878711 31.9417293,67.6243254 35.3670339,66.774304 C41.1660091,63.3044453 43.0900074,56.6765843 41.9742203,50.0808797 C41.7679706,49.1695791 41.5857034,48.1921456 41.2565432,47.311788 C41.6462592,51.5697822 40.5670455,55.8259562 36.8101825,58.1667002 C34.4658904,59.3219041 32.3638218,61.0862596 29.5380805,61.023767 C24.5796928,60.9940375 20.5530264,58.6526867 16.9802293,55.2799039 C12.4109582,50.6572682 9.64757141,44.6039755 11.3593243,38.0380004 C12.6825603,34.4819868 13.1628104,30.3162148 16.7380058,27.8838553 C20.9757185,24.4758825 27.6146817,25.9975481 31.7318822,28.6125317 C39.784016,33.7793995 45.7922388,42.0824275 45.9751055,51.6905204 C46.0338627,57.7128701 43.6014348,63.6102345 38.0404862,66.3150134 C34.7063152,67.4429147 31.5214355,68.9906695 27.6464586,68.6551507 C16.317712,67.7784334 5.31992425,58.1964297 1.50430406,47.4634692 C-0.268604312,43.1466227 0.242223532,37.7959173 0.51382566,32.9293782 C0.903541738,26.8797259 4.47993621,20.7063017 10.2789115,18.3060987 C14.0951312,16.6351787 19.2327882,16.3912754 23.3793673,17.3899443 C18.4833342,13.2575422 13.1927886,10.1232022 7.69479407,7.48091596 C7.90584032,4.98667059 8.38549088,2.46330242 8.65649344,1.24344979e-14 C15.625816,3.67917878 22.1466654,8.48322522 28.3059781,14.1409334 L28.3059781,14.1409334 Z M33.5635478,53.3311041 C34.2254656,52.1461707 34.5870022,50.7773997 34.4652908,49.2878905 L34.2836232,49.5032777 C32.6324261,50.6560547 31.2798116,52.6054613 29.3264347,52.9992257 C30.5897143,53.4548759 32.1821542,53.7285088 33.5635478,53.3311041 L33.5635478,53.3311041 Z M32.0322634,50.0177803 C32.2115328,49.5330072 32.2421105,48.8625764 32.1527756,48.3456469 L30.4698017,49.8946152 C30.9500518,50.0487233 31.5202364,50.0808797 32.0322634,50.0177803 L32.0322634,50.0177803 Z M26.1139751,43.0252778 L26.6841597,42.2031657 L25.9934629,42.2031657 L26.1139751,43.0252778 Z M26.0821982,39.8612083 L26.0821982,39.7726265 C25.1816543,39.7392566 24.1899768,39.7392566 23.4986804,40.1955136 C23.3182119,41.2002498 23.528059,42.233502 23.7690834,43.0871637 C24.5209356,42.0205416 25.3009674,40.9587733 26.0821982,39.8612083 L26.0821982,39.8612083 Z M25.5725695,36.2730382 C23.3475905,35.7573222 21.1250097,36.3027677 19.5919266,37.8256468 C19.021742,40.3793512 19.6806619,42.9033261 20.7035168,45.030503 C20.5830046,43.9377918 20.8228298,42.9949415 21.2143446,42.1127638 C22.6275151,40.1360546 23.3475905,37.6120797 25.5725695,36.2730382 L25.5725695,36.2730382 Z M27.1943879,31.9264622 C26.2926449,31.5023616 25.3615232,31.2578515 24.3992243,31.0151617 C20.6147814,30.1621067 16.6774499,30.9265798 14.0333762,33.9019579 C13.4913711,34.6045452 12.7407179,35.2124834 12.7712957,36.1523 C12.3204241,43.2352045 15.6857724,48.9857415 20.8851844,53.6987793 C24.8818727,57.0096761 29.6292141,59.7162752 35.0066964,58.4421532 C37.3509885,56.1008025 38.0117071,52.9045766 37.6507701,49.5924663 C37.3509885,50.7161205 36.7784056,51.7493727 35.847284,52.6321572 C34.3741572,53.7285088 32.9316082,54.8812858 31.3691465,55.7307004 C28.2142449,57.0090694 24.970608,55.5529301 22.5070029,53.6981725 C18.3898024,50.4145783 15.8062846,45.5158828 17.4880593,40.3168585 C18.57147,38.2812971 19.3221232,36.1231772 20.7352936,34.2047136 C22.3265343,32.231038 24.7295836,31.5618206 27.1943879,31.9264622 L27.1943879,31.9264622 Z" id="Shape" fill="#231F20"></path>
                    <path d="M36.4186677,9.09237686 C37.17052,10.0036774 37.1399423,11.5854088 36.5991362,12.6180543 C36.208221,13.3182146 35.4869465,13.8339306 34.7674707,13.9570958 C33.6552809,14.1694494 32.6618047,13.621577 32.0928193,12.6799402 C31.4908578,11.7376967 31.4602801,10.1535384 32.123397,9.21008146 C32.7535379,8.3012078 33.774594,7.78306488 34.9161624,8.02757495 C35.4869465,8.17986286 36.0277525,8.54268425 36.4186677,9.09237686" id="Path" fill="#C32126"></path>
                </g>
                <g id="Group" transform="translate(0.000000, 82.000000)" fill="#231F20">
                    <polygon id="Path" points="0.298205215 0.294837844 3.45143804 0.294837844 3.45143804 3.78854645 3.47986735 3.78854645 6.28952906 0.294837844 10.1740603 0.294837844 6.46131462 4.25657156 10.7759146 10.4343832 6.848437 10.4343832 4.32609269 6.48643257 3.45143804 7.43806367 3.45143804 10.4343832 0.298205215 10.4343832"></polygon>
                    <path d="M11.3668811,0.294837844 L14.2049721,0.294837844 L14.2049721,3.85925959 L14.2334014,3.85925959 C14.7209337,3.2911574 15.3512173,2.87946309 16.5555309,2.87946309 C17.8886836,2.87946309 19.1069094,3.68906864 19.1069094,5.3783936 L19.1069094,10.4343832 L16.2688184,10.4343832 L16.2688184,6.57212731 C16.2688184,5.71997403 16.1684085,5.12370644 15.3373051,5.12370644 C14.8497729,5.12370644 14.2049721,5.36461053 14.2049721,6.54336265 L14.2049721,10.4343832 L11.3668811,10.4343832 L11.3668811,0.294837844 Z" id="Path"></path>
                    <path d="M27.8383339,8.78700673 C27.8383339,9.34132585 27.8667632,9.96575884 28.181905,10.4343832 L25.2863505,10.4343832 C25.2143699,10.2354276 25.1720284,9.93759344 25.1859406,9.73863782 L25.1575113,9.73863782 C24.555657,10.4206002 23.6810024,10.6189565 22.7634013,10.6189565 C21.3298387,10.6189565 20.1406471,9.93759344 20.1406471,8.38969476 C20.1406471,6.06035593 22.8928454,6.14605067 24.3403202,5.87638191 C24.7274426,5.80506951 25.114565,5.69120936 25.114565,5.22318425 C25.114565,4.7257952 24.6415498,4.54122192 24.1824468,4.54122192 C23.3083971,4.54122192 23.1360066,4.98108163 23.1220944,5.29389739 L20.4848231,5.29389739 C20.5707159,3.22044426 22.5486694,2.88006236 24.3118909,2.88006236 C27.8667632,2.88006236 27.8383339,4.3422663 27.8383339,5.76312103 L27.8383339,8.78700673 L27.8383339,8.78700673 Z M25.1151698,7.12584717 C24.7709938,7.29603812 24.3838714,7.39551593 23.9967491,7.48121067 C23.3664654,7.62263695 23.0368065,7.77904483 23.0368065,8.27643388 C23.0368065,8.61681578 23.4094118,8.95779694 23.9253734,8.95779694 C24.5701741,8.95779694 25.0722234,8.57426804 25.1151698,7.8078095 L25.1151698,7.12584717 Z" id="Shape"></path>
                    <path d="M34.1478239,9.86628103 C33.9185749,10.520078 33.6602917,11.3572496 33.2157058,11.9115688 C32.4704952,12.8344352 31.3236451,12.8206521 30.2197415,12.8206521 L28.93014,12.8206521 L28.93014,10.577008 L29.5894578,10.577008 C29.8761703,10.577008 30.2487756,10.6051734 30.4495954,10.5056956 C30.6213809,10.4206002 30.7217908,10.2785746 30.7217908,9.95197577 C30.7217908,9.59661227 29.6324042,6.88494308 29.4745309,6.45886643 L28.2133587,3.06463564 L31.2522694,3.06463564 L32.4420659,7.29663738 L32.4704952,7.29663738 L33.6742039,3.06463564 L36.6127048,3.06463564 L34.1478239,9.86628103 Z" id="Path"></path>
                    <path d="M44.2117963,8.78700673 C44.2117963,9.34132585 44.2408305,9.96575884 44.5559723,10.4343832 L41.6604178,10.4343832 C41.5884372,10.2354276 41.5460957,9.93759344 41.5600079,9.73863782 L41.5315786,9.73863782 C40.9297243,10.4206002 40.0550696,10.6189565 39.1374686,10.6189565 C37.703906,10.6189565 36.5147144,9.93759344 36.5147144,8.38969476 C36.5147144,6.06035593 39.2669126,6.14605067 40.7143875,5.87638191 C41.1015098,5.80506951 41.4886322,5.69120936 41.4886322,5.22318425 C41.4886322,4.7257952 41.0156171,4.54122192 40.5565141,4.54122192 C39.6824643,4.54122192 39.5100739,4.98108163 39.4961617,5.29389739 L36.8588904,5.29389739 C36.9447832,3.22044426 38.9227366,2.88006236 40.6859582,2.88006236 C44.2408305,2.88006236 44.2117963,4.3422663 44.2117963,5.76312103 L44.2117963,8.78700673 Z M41.4886322,7.12584717 C41.1444562,7.29603812 40.7573338,7.39551593 40.3702115,7.48121067 C39.7399278,7.62263695 39.4102689,7.77904483 39.4102689,8.27643388 C39.4102689,8.61681578 39.7828742,8.95779694 40.2988358,8.95779694 C40.9436365,8.95779694 41.4456858,8.57426804 41.4886322,7.8078095 L41.4886322,7.12584717 L41.4886322,7.12584717 Z" id="Shape"></path>
                    <polygon id="Path" points="45.6762077 0.294837844 48.5142987 0.294837844 48.5142987 10.4343832 45.6762077 10.4343832"></polygon>
                    <path d="M61.1586837,4.07259754 C61.1012202,3.70345097 60.8145077,2.58162893 59.5097843,2.58162893 C58.0338802,2.58162893 57.5602601,4.0018844 57.5602601,5.3652098 C57.5602601,6.72853519 58.0332753,8.14879066 59.5097843,8.14879066 C60.5707416,8.14879066 60.9856884,7.41049753 61.1725959,6.4594657 L64.2683653,6.4594657 C64.2683653,8.50415416 62.5916414,10.6770851 59.5956771,10.6770851 C56.2845709,10.6770851 54.4064224,8.36212862 54.4064224,5.36580906 C54.4064224,2.17053389 56.4418394,0.0551322798 59.5956771,0.0551322798 C62.4053388,0.0689153498 63.9526186,1.53171856 64.2254189,4.07379607 L61.1586837,4.07379607 L61.1586837,4.07259754 Z" id="Path"></path>
                    <path d="M69.1455025,10.6189565 C66.3503579,10.6189565 65.0891857,8.78700673 65.0891857,6.74231826 C65.0891857,4.6976298 66.3503579,2.88006236 69.1455025,2.88006236 C71.9400422,2.88006236 73.2018193,4.6976298 73.2018193,6.74231826 C73.2018193,8.78700673 71.9406471,10.6189565 69.1455025,10.6189565 Z M69.1455025,4.92475082 C68.070633,4.92475082 67.9266718,5.96087812 67.9266718,6.74231826 C67.9266718,7.5237584 68.0700281,8.57426804 69.1455025,8.57426804 C70.2209769,8.57426804 70.3637283,7.5237584 70.3637283,6.74231826 C70.3637283,5.96087812 70.2209769,4.92475082 69.1455025,4.92475082 Z" id="Shape"></path>
                    <path d="M74.3075376,3.06403638 L77.0452187,3.06403638 L77.0452187,4.00128514 L77.0742529,4.00128514 C77.6041267,3.262992 78.3644592,2.87946309 79.4967922,2.87946309 C80.8293401,2.87946309 82.0481707,3.68906864 82.0481707,5.3783936 L82.0481707,10.4343832 L79.2100797,10.4343832 L79.2100797,6.57212731 C79.2100797,5.71997403 79.1096698,5.12370644 78.2785665,5.12370644 C77.7910342,5.12370644 77.1462335,5.36461053 77.1462335,6.54336265 L77.1462335,10.4343832 L74.3081425,10.4343832 L74.3081425,3.06403638 L74.3075376,3.06403638 Z" id="Path"></path>
                    <path d="M87.812665,5.20820265 C87.7987528,4.96729856 87.6693088,4.78212601 87.4830061,4.6544828 C87.3112206,4.51245725 87.0813667,4.44174411 86.8521176,4.44174411 C86.451083,4.44174411 85.9919801,4.52683959 85.9919801,5.0098463 C85.9919801,5.22258499 86.1637656,5.3220628 86.321639,5.3933752 C86.7946541,5.59173156 87.8701285,5.64866163 88.8161589,5.96087812 C89.7615843,6.25931155 90.5932926,6.81303141 90.5932926,8.02054819 C90.5932926,10.0652367 88.6147342,10.6189565 86.8085663,10.6189565 C85.0598619,10.6189565 83.139372,9.92321111 83.0964256,8.02054819 L85.8056774,8.02054819 C85.8195896,8.27643388 85.9345166,8.48917257 86.1492485,8.67374585 C86.2926048,8.80138906 86.5654051,8.88648454 86.9089762,8.88648454 C87.2815815,8.88648454 87.8695236,8.74445899 87.8695236,8.31838235 C87.8695236,7.89230571 87.6263624,7.7646625 86.3071219,7.53754147 C84.1428658,7.16839491 83.268816,6.48643257 83.268816,5.22318425 C83.268816,3.36306907 85.2897158,2.88006236 86.7807419,2.88006236 C88.3860901,2.88006236 90.321702,3.31992207 90.3930777,5.20880192 L87.812665,5.20880192 L87.812665,5.20820265 Z" id="Path"></path>
                    <path d="M99.3821805,10.4343832 L96.6444994,10.4343832 L96.6444994,9.49713446 L96.6160701,9.49713446 C96.0855915,10.2354276 95.3258638,10.6189565 94.1935308,10.6189565 C92.8603781,10.6189565 91.6415474,9.80935096 91.6415474,8.120026 L91.6415474,3.06403638 L94.4796384,3.06403638 L94.4796384,6.92629229 C94.4796384,7.77844557 94.5800483,8.37471316 95.4111517,8.37471316 C95.8986839,8.37471316 96.5434847,8.13380907 96.5434847,6.95505695 L96.5434847,3.06403638 L99.3815757,3.06403638 L99.3815757,10.4343832 L99.3821805,10.4343832 Z" id="Path"></path>
                    <polygon id="Path" points="100.875021 0.294837844 103.713112 0.294837844 103.713112 10.4343832 100.875021 10.4343832"></polygon>
                    <path d="M108.644689,3.06403638 L110.164144,3.06403638 L110.164144,4.79710761 L108.644689,4.79710761 L108.644689,7.36735052 C108.644689,8.04871359 108.801957,8.34714702 109.518738,8.34714702 C109.73347,8.34714702 109.948807,8.33336395 110.163539,8.30459928 L110.163539,10.4349825 C109.590114,10.4349825 108.944708,10.5206772 108.342854,10.5206772 C107.139145,10.5206772 105.805993,10.3355047 105.805993,8.31898162 L105.805993,4.79770687 L104.544821,4.79770687 L104.544821,3.06463564 L105.805993,3.06463564 L105.805993,0.820991558 L108.644084,0.820991558 L108.644084,3.06403638 L108.644689,3.06403638 Z" id="Path"></path>
                    <path d="M118.436465,8.78700673 C118.436465,9.34132585 118.464895,9.96575884 118.780037,10.4343832 L115.884482,10.4343832 C115.813106,10.2354276 115.77016,9.93759344 115.784677,9.73863782 L115.755643,9.73863782 C115.153789,10.4206002 114.279739,10.6189565 113.362138,10.6189565 C111.928575,10.6189565 110.738779,9.93759344 110.738779,8.38969476 C110.738779,6.06035593 113.490977,6.14605067 114.938452,5.87638191 C115.325574,5.80506951 115.712092,5.69120936 115.712092,5.22318425 C115.712092,4.7257952 115.239681,4.54122192 114.780578,4.54122192 C113.906529,4.54122192 113.734743,4.98108163 113.719621,5.29389739 L111.08235,5.29389739 C111.168848,3.22044426 113.146801,2.88006236 114.909418,2.88006236 C118.46429,2.88006236 118.435861,4.3422663 118.435861,5.76312103 L118.435861,8.78700673 L118.436465,8.78700673 Z M115.712697,7.12584717 C115.369125,7.29603812 114.982003,7.39551593 114.594881,7.48121067 C113.963992,7.62263695 113.634333,7.77904483 113.634333,8.27643388 C113.634333,8.61681578 114.006939,8.95779694 114.5229,8.95779694 C115.167701,8.95779694 115.66975,8.57426804 115.712697,7.8078095 L115.712697,7.12584717 Z" id="Shape"></path>
                    <path d="M119.856721,3.06403638 L122.594402,3.06403638 L122.594402,4.00128514 L122.623436,4.00128514 C123.15331,3.262992 123.913642,2.87946309 125.045371,2.87946309 C126.378523,2.87946309 127.597354,3.68906864 127.597354,5.3783936 L127.597354,10.4343832 L124.759263,10.4343832 L124.759263,6.57212731 C124.759263,5.71997403 124.658853,5.12370644 123.82775,5.12370644 C123.340217,5.12370644 122.695417,5.36461053 122.695417,6.54336265 L122.695417,10.4343832 L119.857326,10.4343832 L119.857326,3.06403638 L119.856721,3.06403638 Z" id="Path"></path>
                    <path d="M132.43094,3.06403638 L133.950395,3.06403638 L133.950395,4.79710761 L132.43094,4.79710761 L132.43094,7.36735052 C132.43094,8.04871359 132.588208,8.34714702 133.30499,8.34714702 C133.519722,8.34714702 133.735058,8.33336395 133.94979,8.30459928 L133.94979,10.4349825 C133.376365,10.4349825 132.73096,10.5206772 132.129105,10.5206772 C130.925397,10.5206772 129.592244,10.3355047 129.592244,8.31898162 L129.592244,4.79770687 L128.331072,4.79770687 L128.331072,3.06463564 L129.592244,3.06463564 L129.592244,0.820991558 L132.430335,0.820991558 L132.430335,3.06403638 L132.43094,3.06403638 Z" id="Path"></path>
                    <path d="M139.21163,5.20820265 C139.197718,4.96729856 139.068274,4.78212601 138.881972,4.6544828 C138.710186,4.51245725 138.480332,4.44174411 138.251083,4.44174411 C137.850048,4.44174411 137.390945,4.52683959 137.390945,5.0098463 C137.390945,5.22258499 137.562731,5.3220628 137.720604,5.3933752 C138.19362,5.59173156 139.269094,5.64866163 140.215124,5.96087812 C141.16055,6.25931155 141.992258,6.81303141 141.992258,8.02054819 C141.992258,10.0652367 140.0137,10.6189565 138.207532,10.6189565 C136.458827,10.6189565 134.538337,9.92321111 134.495391,8.02054819 L137.204643,8.02054819 C137.218555,8.27643388 137.333482,8.48917257 137.548214,8.67374585 C137.69157,8.80138906 137.96437,8.88648454 138.307942,8.88648454 C138.680547,8.88648454 139.268489,8.74445899 139.268489,8.31838235 C139.268489,7.89230571 139.025328,7.7646625 137.706087,7.53754147 C135.541831,7.16839491 134.667781,6.48643257 134.667781,5.22318425 C134.667781,3.36306907 136.688681,2.88006236 138.179707,2.88006236 C139.785055,2.88006236 141.720667,3.31992207 141.792043,5.20880192 L139.21163,5.20880192 L139.21163,5.20820265 Z" id="Path"></path>
                </g>
                <g id="Group" transform="translate(38.000000, 98.000000)" fill="#000000" opacity="0.65">
                    <path d="M1.81483671,4.41515523 C1.8841455,4.41515523 1.98057512,4.58309664 1.96671336,4.69505757 C1.86968106,5.51955252 1.63463387,7.28172032 1.70333997,8.42871145 C1.71720173,8.83396136 1.77264876,8.98790765 1.84195754,8.98790765 C1.89740457,8.98790765 2.02216039,8.91793207 2.21562231,8.70861379 C2.61761328,8.26137852 3.35168374,7.08639716 3.66990148,6.37325467 C3.75307203,6.16332791 3.82238081,5.96739627 3.83624257,5.71609265 C3.85010433,5.42280367 3.8916896,5.11491109 3.90555136,4.90498433 C3.91941312,4.76564164 4.00258366,4.72304781 4.07189245,4.69505757 C4.29368057,4.65307222 4.59803655,4.56910152 4.75051588,4.55571489 C4.81982467,4.54171977 4.88853077,4.65307222 4.86140994,4.76564164 C4.76437764,5.18488668 4.57091572,6.34587292 4.68180978,7.72956407 C4.75111857,8.6386382 4.972304,9.07187835 5.11092158,9.07187835 C5.31824525,9.07187835 5.54003337,8.94653078 5.81726852,8.58265774 C6.16320978,8.1488091 6.82797145,7.05840693 6.82797145,5.95400964 C6.82797145,5.50677437 6.70321564,5.29684761 6.59232158,5.18488668 C6.5507363,5.10030749 6.5507363,5.01694527 6.57845982,4.97495992 C6.92500376,4.51312105 7.10460392,4.35917476 7.25708325,4.35917476 C7.50659489,4.35917476 7.78383004,4.75103804 7.76996828,5.21226843 C7.76996828,5.60413171 7.6313507,6.09274384 7.29866852,6.80588634 C6.77252442,7.93827386 6.0245922,9.0152894 5.5954804,9.4065442 C5.20735119,9.78380388 4.62576006,10.273633 4.37685111,10.273633 C4.27981881,10.273633 4.21051002,10.1756672 4.18278651,10.1063001 C4.0170481,9.60308432 3.80912174,8.48408343 3.80912174,6.93184239 C2.75623086,8.70800531 2.23008675,9.33656861 1.80097496,9.75642213 C1.55146332,10.0083342 1.19166031,10.2742415 1.08076625,10.2742415 C1.03918098,10.2742415 0.928889604,10.1622805 0.900563404,10.0643147 C0.693239726,9.3371771 0.942148676,6.3866413 0.983733949,5.64550858 C0.997595707,5.51955252 0.942148676,5.49156229 0.886701646,5.50616589 C0.748686756,5.56214636 0.402142819,5.79945487 0.0700633235,6.12134256 C0.0423398084,6.09335233 -0.0131072216,5.93940604 0.0146162934,5.85543533 C0.111648596,5.61751834 1.21998651,4.41515523 1.80157764,4.41515523 L1.81483671,4.41515523 L1.81483671,4.41515523 Z" id="Path"></path>
                    <path d="M11.4517716,4.41515523 C12.130395,4.41515523 12.9331716,5.10030749 12.9331716,6.6245583 C12.9331716,7.53363243 12.7113835,8.24677492 12.3515805,8.72200042 C11.9495895,9.25320639 11.1877955,9.78441236 10.3711572,10.1202952 C10.2048161,10.2042659 10.0246133,10.2602463 9.9143219,10.2602463 C8.84756925,10.2602463 8.33528691,9.23921128 8.33528691,8.10682375 C8.33528691,7.02980821 8.73667519,6.07935721 9.3598516,5.47817565 C9.65034582,5.18488668 11.0497806,4.41515523 11.4373072,4.41515523 L11.4517716,4.41515523 Z M10.8285952,5.12890621 C10.5236365,5.12890621 10.3018484,5.2682489 10.0945247,5.46418054 C9.74858349,5.80006335 9.36045428,6.77850459 9.36045428,7.85552013 C9.36045428,8.69461867 9.66541295,9.54710386 10.4543278,9.54710386 C10.7177011,9.54710386 10.9527483,9.47773675 11.1468129,9.28119663 C11.562063,8.87594671 11.9363304,7.9808677 11.9363304,6.86186681 C11.9363304,6.16332791 11.7977129,5.75746951 11.6458362,5.5055574 C11.4517716,5.26764041 11.2028627,5.12829772 10.842457,5.12829772 L10.8285952,5.12829772 L10.8285952,5.12890621 Z" id="Shape"></path>
                    <path d="M15.342104,4.42915035 C15.5500304,4.42915035 15.701907,4.75042956 15.7163714,4.98834655 C15.7302332,5.19827331 15.6886479,5.79945487 15.6054774,6.45661689 C15.6054774,6.52659248 15.6609244,6.52659248 15.7163714,6.45661689 C16.1454832,5.78545975 16.6993509,4.7930234 16.9072772,4.56849304 C17.032033,4.42915035 17.2815447,4.35856628 17.4611448,4.35856628 C17.6967947,4.35856628 18.1397683,4.55449792 18.1397683,4.89038073 C18.1397683,5.11369412 18.098183,5.56153787 17.9318419,5.68749393 C17.8348096,5.77146463 17.7793626,5.75686103 17.7100538,5.71548416 C17.6130215,5.63151346 17.4882657,5.51955252 17.1700479,5.51955252 C16.5468715,5.51955252 15.9236951,6.61056318 15.7157688,7.35169591 C15.5494277,8.00885793 15.2028837,9.92497202 15.1341776,10.0083342 C15.0371453,10.1202952 14.5664483,10.2602463 14.3169366,10.2602463 C14.2753513,10.2602463 14.122872,10.1342903 14.16506,10.0217209 C14.3868481,9.0152894 14.8020981,7.22513137 14.8852687,5.86943045 C14.8991304,5.63151346 14.8298216,5.57614147 14.6634806,5.65950369 C14.3868481,5.79884638 14.0818894,6.02337674 13.9848571,6.06475361 C13.9294101,6.09274384 13.7492072,5.95279267 13.7492072,5.91080732 C13.9149457,5.68749393 15.1203159,4.42854186 15.3282422,4.42854186 L15.342104,4.42854186 L15.342104,4.42915035 Z" id="Path"></path>
                    <path d="M22.3483184,4.41515523 C22.8057564,4.41515523 23.304177,4.94696968 23.304177,5.3522196 C23.304177,6.02398522 22.6810006,6.6245583 22.3899037,6.7924997 C22.0572215,7.03041669 21.378598,7.2677252 20.9910715,7.35169591 C21.5310774,7.99486281 22.0301006,8.48408343 22.4453507,9.07126987 C22.6255535,9.25320639 22.7358449,9.35117221 22.846739,9.35117221 C23.0962506,9.35117221 23.6501182,8.86134311 23.8580446,8.70800531 C23.9273534,8.73599554 24.0105239,8.88933335 23.9412151,9.00129428 C23.6778417,9.43453443 22.8334799,10.3436086 22.2512861,10.3436086 C22.1681155,10.3436086 22.1132712,10.3156183 22.0855477,10.273633 C20.4378066,7.92488723 20.2021567,7.53302395 19.7031334,7.51902883 C19.6199629,7.78493606 19.4126392,9.44913803 19.3011425,10.0217209 C19.2041102,10.0637062 18.7195513,10.1756672 18.5532103,10.1756672 C18.4700397,10.1756672 18.3036986,10.0503196 18.3175604,9.980344 C18.3591456,9.71443678 18.8852897,7.08578868 19.633222,2.03781076 C19.7302543,1.40863897 19.7163925,1.28268291 19.5639132,1.29667803 C19.3559868,1.32466827 18.9407368,1.40863897 18.6635016,1.46401095 C18.6219164,1.45062432 18.6357781,1.22609396 18.6773634,1.19810373 C19.1064752,0.932196501 20.5607544,0.219662492 20.6716484,0.219662492 C20.7825425,0.219662492 20.8651103,0.415594132 20.8518513,0.512951469 C20.7270954,1.2540842 20.2425366,3.54684948 19.8821309,5.91019884 C19.8682692,5.98017442 19.9237162,6.06414513 19.993025,6.02276826 C20.463722,5.68688544 22.0982041,4.41393826 22.3338539,4.41393826 L22.3483184,4.41393826 L22.3483184,4.41515523 Z M21.7944508,5.29623913 C21.2405832,5.29623913 19.841751,6.52659248 19.7447187,7.18436298 C20.5896832,7.26833369 22.3350593,6.82048994 22.3205949,5.75746951 C22.3205949,5.53415612 22.140392,5.29623913 21.8077098,5.29623913 L21.7944508,5.29623913 Z" id="Shape"></path>
                    <path d="M25.2002243,10.2602463 C25.0067624,10.2602463 24.6740802,9.75642213 24.798836,9.19722593 C24.9645744,8.37273098 25.3665654,6.40063642 25.4642004,5.81344998 C25.4919239,5.68749393 25.4226151,5.64550858 25.2978593,5.70088056 C24.9796416,5.86882197 24.8133005,5.98078291 24.5915124,6.09274384 C24.5360653,6.03676337 24.5083418,5.86943045 24.5222036,5.84144022 C24.5499271,5.75686103 26.2947005,4.34517965 26.3923355,4.34517965 C26.5448148,4.34517965 26.6418471,4.66645886 26.6002618,4.83440026 C26.2820441,5.96678779 25.9493619,7.63159825 25.8107443,8.79197601 C25.7552973,9.21122104 25.8384679,9.22521616 26.7382767,8.67940659 C26.7937238,8.847348 26.7937238,8.97330405 26.7250176,9.05727475 C26.5448148,9.29519175 25.4509413,10.2602463 25.2152914,10.2602463 L25.2002243,10.2602463 L25.2002243,10.2602463 Z M26.5857974,1.35326698 C26.8347063,1.35326698 27.0004447,1.60517909 27.0004447,1.88447295 C27.0004447,2.29033135 26.7099505,2.54163498 26.3501475,2.54163498 C26.0313271,2.54163498 25.8234007,2.33170822 25.8234007,2.05241436 C25.8234007,1.60517909 26.2386508,1.35326698 26.5713329,1.35326698 L26.5857974,1.35326698 Z" id="Shape"></path>
                    <path d="M33.273794,8.66601996 C33.2870531,8.83335288 31.5145562,10.3016232 31.181874,10.3016232 C31.0987035,10.3016232 30.8913798,10.0503196 30.9185006,9.980344 C31.3482151,8.84795648 31.7773269,7.00181798 31.8743592,6.13533768 C31.9298063,5.61751834 31.8327739,5.3522196 31.583865,5.3522196 C31.2234593,5.3522196 30.1151214,6.55519119 29.4786859,7.91089211 C29.0772976,8.68001507 28.6891684,9.86899155 28.5921361,10.0509281 C28.5644126,10.1069085 28.1069746,10.2462512 27.9966832,10.2462512 C27.8863919,10.2462512 27.8164804,10.0789183 27.8032213,9.96634889 C27.8164804,9.75642213 28.121439,8.73660403 28.3293654,7.88290188 C28.6066006,6.80588634 28.7446154,5.95340115 28.7446154,5.79945487 C28.7578745,5.67349881 28.7307537,5.57614147 28.6614449,5.57614147 C28.5089656,5.57614147 28.1069746,5.8420487 27.7200508,6.10734744 C27.5952949,5.99477802 27.5675714,5.9114158 27.608554,5.85543533 C27.9689597,5.4361903 29.0489714,4.45714058 29.2846213,4.45714058 C29.3677919,4.45714058 29.4780832,4.5551064 29.5479947,4.69505757 C29.6721478,4.98834655 29.6588888,5.33822448 29.2291743,7.32370567 C29.9771065,6.20470478 30.7389005,5.45018542 31.3620769,4.94696968 C31.7640678,4.61108687 32.2209032,4.34578813 32.345659,4.34578813 C32.7337882,4.34578813 32.9411119,4.91897945 32.858544,5.54815124 C32.8024943,6.03798034 32.2908146,8.34534923 32.2353676,8.8619516 C32.2076441,9.04388812 32.3878469,9.01589789 33.218347,8.41471633 L33.273794,8.66601996 Z" id="Path"></path>
                    <path d="M36.8175825,4.35917476 C37.0387679,4.35917476 37.4130354,4.61108687 37.6071,4.75103804 C37.8975942,4.75103804 38.6184056,4.76503316 38.7986084,4.77902828 C38.881779,4.7930234 39.0342583,4.8769941 39.0342583,4.94696968 C39.0475174,5.01633679 39.0203966,5.46418054 38.992673,5.46418054 C38.7292997,5.4361903 38.1483112,5.33822448 37.9259204,5.32483785 C38.0783997,5.66072066 38.0922615,5.99599499 38.0922615,6.40185339 C38.0922615,7.11499588 37.6071,8.02346153 37.1231438,8.41532481 C36.5554145,8.87716368 36.1395617,9.11447219 35.6688647,9.24042824 C35.5718324,9.35238918 35.5302471,9.49173187 35.5302471,9.60430129 C35.5302471,9.99555609 36.2227323,10.4287962 36.5969997,10.7080901 C37.1098848,11.0719631 38.1898965,11.827091 38.1898965,12.2889299 C38.1898965,12.4982481 37.9409875,12.7641554 37.7607847,12.8895029 C37.5395992,13.0434492 36.7217556,13.5746552 35.8219467,13.7705868 C35.6278821,13.8265673 35.461541,13.8405624 35.2819408,13.8405624 C34.5062851,13.8405624 33.4118089,13.4766894 32.9411119,12.7635469 C32.8579413,12.6375908 32.816356,12.4836445 32.816356,12.3996738 C32.816356,12.2597227 32.9001293,12.1063849 33.0797294,11.9244483 C33.2876558,11.7145216 34.6033174,10.8334377 34.9359996,10.6235109 C34.7280732,10.4135842 34.6310409,10.2042659 34.6310409,9.980344 C34.6310409,9.8963733 34.6864879,9.8124026 34.7557967,9.74242701 C34.8522263,9.63046608 35.1162024,9.39315757 35.2819408,9.21122104 C34.6033174,9.0152894 34.1603438,8.48408343 34.1603438,7.61699465 C34.1464821,6.49860224 34.6587644,5.7288708 35.199373,5.19766483 C35.4205584,5.00234167 36.5288963,4.34517965 36.8055288,4.35856628 L36.8175825,4.35856628 L36.8175825,4.35917476 Z M37.1635237,12.5256299 C37.1635237,12.1617568 36.4716412,11.6865313 35.2246857,10.8614279 C34.7262652,11.1693205 33.8813006,11.8684679 33.8674389,12.1623653 C33.8674389,12.3576885 33.9921947,12.5676152 34.2826889,12.777542 C34.6009067,13.015459 35.2795301,13.2247773 35.8056742,13.2393809 C36.6223125,13.2527675 37.1767828,12.9174932 37.1629211,12.5402335 L37.1629211,12.5256299 L37.1635237,12.5256299 Z M37.1779882,6.4012449 C37.1779882,5.72947928 36.9700618,4.98895504 36.3191619,4.98895504 C36.1250973,4.98895504 35.9587562,5.05893062 35.8062769,5.21287691 C35.5429035,5.39481343 35.1276534,6.20531326 35.1276534,7.15637275 C35.1276534,7.63159825 35.210824,7.99486281 35.3633033,8.23277981 C35.5013182,8.44270656 35.7514325,8.58265774 36.0557885,8.58265774 C36.2637149,8.58265774 36.4571768,8.48469192 36.6373796,8.31675051 C36.845306,8.09282863 37.1773855,7.51902883 37.1773855,6.41463154 L37.1773855,6.4012449 L37.1779882,6.4012449 Z" id="Shape"></path>
                    <path d="M42.9089209,10.2602463 C42.715459,10.2602463 42.3827768,9.75642213 42.5075326,9.19722593 C42.673271,8.37273098 43.075262,6.40063642 43.172897,5.81344998 C43.2006205,5.68749393 43.1313117,5.64550858 43.0065559,5.70088056 C42.6883381,5.86882197 42.521997,5.98078291 42.3002089,6.09274384 C42.2447619,6.03676337 42.2170384,5.86943045 42.2309001,5.84144022 C42.2586237,5.75686103 44.003397,4.34517965 44.101032,4.34517965 C44.2535114,4.34517965 44.3505437,4.66645886 44.3089584,4.83440026 C43.9907407,5.96678779 43.6580585,7.63159825 43.5194409,8.79197601 C43.4639939,9.21122104 43.5471644,9.22521616 44.4469733,8.67940659 C44.5024203,8.847348 44.5024203,8.97330405 44.4337142,9.05727475 C44.2535114,9.29519175 43.1596379,10.2602463 42.923988,10.2602463 L42.9089209,10.2602463 L42.9089209,10.2602463 Z M44.2938913,1.35326698 C44.5428002,1.35326698 44.7085386,1.60517909 44.7085386,1.88447295 C44.7085386,2.29033135 44.4180444,2.54163498 44.0582414,2.54163498 C43.739421,2.54163498 43.5314946,2.33170822 43.5314946,2.05241436 C43.5314946,1.60517909 43.9467446,1.35326698 44.2794268,1.35326698 L44.2938913,1.35326698 Z" id="Shape"></path>
                    <path d="M46.4955,10.2602463 C45.8446001,10.2602463 45.4016265,9.37916245 45.4016265,8.41410785 C45.4016265,7.92488723 45.4980561,7.4910386 45.6505354,7.11377891 C46.093509,5.95340115 47.4374968,4.90437585 48.3095821,4.52711617 C48.4620615,4.45714058 48.6000764,4.41454675 48.7525557,4.41454675 C49.0159291,4.41454675 49.2654407,4.42854186 49.555935,4.5405028 C49.7361378,3.5060811 49.971185,1.78650713 49.9989085,1.2686878 C50.0127703,1.10135487 49.9018762,1.03077081 49.7493969,1.05876104 C49.1955293,1.15672686 49.0990996,1.17072198 48.9876029,1.17072198 C48.9321559,1.17072198 48.8074,0.988785453 48.8351236,0.960795219 C49.2503736,0.737481827 50.635344,0.191672257 50.9403027,0.191672257 C51.1343673,0.191672257 51.0783175,0.638907524 50.8571321,1.92584982 C50.7323763,2.61100208 50.2478175,5.18366971 49.9983058,7.22513137 C49.7771204,9.02928452 49.8458265,9.12664186 50.1230616,8.95930893 C50.3165236,8.86134311 50.690791,8.51207367 50.8848556,8.37212249 C50.9680262,8.30214691 51.0096114,8.38550913 50.9818879,8.62342612 C50.7878233,8.95930893 49.3751294,10.3436086 49.0014647,10.3436086 C48.8905706,10.3436086 48.7658148,10.1896623 48.8212618,9.85377947 C49.0846352,8.06422992 49.098497,7.71435199 49.0424472,7.70035687 C48.6133354,8.17558237 46.8685621,9.99373064 46.7438062,10.1196867 C46.6751001,10.2036574 46.6057913,10.2596379 46.5081564,10.2596379 L46.4955,10.2596379 L46.4955,10.2602463 Z M46.966197,9.11386371 C47.2844148,9.11386371 48.3511674,8.1488091 49.0430499,6.94644599 C49.2232528,6.6245583 49.3480086,5.89742069 49.4173174,5.3522196 C49.1123587,5.18488668 48.7664175,5.10030749 48.3089795,5.10030749 C47.8660059,5.10030749 47.4778767,5.39420495 47.1873825,5.70148905 C46.7992533,6.09335233 46.3707442,6.97443623 46.3707442,7.89689699 C46.3707442,8.65141636 46.6341175,9.11325522 46.9523353,9.11325522 L46.966197,9.11325522 L46.966197,9.11386371 Z" id="Shape"></path>
                    <path d="M51.8256471,8.17679934 C51.8256471,6.82048994 52.4626852,5.52016101 53.1413087,5.05893062 C53.3908203,4.8915977 54.4846938,4.41515523 54.7757907,4.41515523 C55.0114406,4.41515523 55.8003554,4.63907711 55.8003554,5.49217077 C55.8003554,5.93940604 55.5791699,6.24729862 55.4821376,6.33126932 C55.1361964,6.56918631 53.6120057,6.89046552 52.8230909,7.05840693 C52.7953674,7.22573985 52.7815057,7.42227998 52.7815057,7.68757872 C52.7815057,8.77798089 53.1280496,9.35117221 54.0145994,9.35117221 C54.4714347,9.35117221 55.2193669,9.04327964 55.3851053,8.98729917 C55.5237229,8.95930893 55.5514464,9.04327964 55.5791699,9.19722593 C54.9559935,9.61647096 53.3769585,10.2462512 53.1828939,10.2462512 C52.8646762,10.2462512 51.8256471,9.91036842 51.8256471,8.19079445 L51.8256471,8.17679934 L51.8256471,8.17679934 Z M54.000135,5.03094039 C53.349235,5.03094039 52.9888293,6.13533768 52.9201232,6.56857783 C52.9201232,6.63855341 52.9755703,6.69453388 53.0165529,6.69453388 C53.5987467,6.56857783 54.8866847,6.13533768 54.8866847,5.8420487 C54.8866847,5.50616589 54.7064819,5.03094039 54.0145994,5.03094039 L54.000135,5.03094039 L54.000135,5.03094039 Z" id="Shape"></path>
                    <path d="M57.3920467,10.2462512 C57.2672909,10.2462512 57.0455028,10.1482854 56.8791617,9.95296225 C56.6302528,9.68705503 56.4639117,9.18383929 56.4639117,8.56866262 C56.4639117,7.6881872 56.8520409,6.70913748 57.28055,6.2333035 C57.682541,5.77207311 58.1809616,5.25486226 59.317023,4.58370512 C59.4411761,4.51372953 59.7184113,4.44375395 60.036629,4.44375395 C60.3548467,4.44375395 60.6465463,4.45774907 60.7568377,4.5003429 C61.0057467,4.43036731 61.1998113,4.36039173 61.4354611,4.34639661 C61.1305025,5.33883297 60.8815935,6.47182897 60.742976,7.53424091 C60.6320819,8.41471633 60.6598054,8.75059914 60.7297169,8.77858938 C61.0623991,8.61125645 61.311308,8.41471633 61.6018022,8.17740782 C61.6295257,8.16402119 61.7265581,8.31735899 61.6988345,8.41532481 C61.4354611,8.80718809 60.1059378,10.2754584 59.8431671,10.2754584 C59.7461348,10.2754584 59.6352407,10.1634975 59.5659319,10.0935219 C59.8293053,8.42992841 59.9118732,7.84274198 59.9118732,7.63281522 C59.6629642,7.94009931 57.8072968,9.93957562 57.6270939,10.107517 C57.5023381,10.2048744 57.4468911,10.2468597 57.4053058,10.2468597 L57.3920467,10.2468597 L57.3920467,10.2462512 Z M57.4197703,8.16280422 C57.4197703,8.73599554 57.6686792,9.05788324 57.9043291,9.05788324 C58.2231495,9.05788324 59.4417788,7.72895559 59.9263376,6.97443623 C60.0095082,6.7924997 60.078817,6.52720096 60.3144668,5.29623913 C60.2035728,5.24025866 59.8437698,5.15689644 59.427917,5.15689644 C58.9017729,5.15689644 58.499782,5.4361903 58.1538407,5.88342557 C57.6831437,6.51259736 57.4197703,7.44966173 57.4197703,8.1488091 L57.4197703,8.16280422 Z" id="Shape"></path>
                    <path d="M64.8689582,4.42915035 C65.1323316,4.42915035 65.5198581,4.52711617 65.5891669,4.7930234 C65.6301495,4.89098922 65.657873,5.18488668 65.657873,5.31023425 C65.657873,5.46418054 65.5614434,5.50616589 65.4499467,5.50616589 C65.3812406,5.50616589 65.2010377,5.46418054 65.0069731,5.40820007 C64.7435997,5.29623913 64.5224143,5.21287691 64.3006262,5.21287691 C63.8853761,5.21287691 63.7328968,5.61812683 63.7328968,5.8420487 C63.7328968,6.20531326 64.0517172,6.45722537 64.3837967,6.76511795 C64.8689582,7.18436298 65.5475816,7.71556895 65.5475816,8.40072121 C65.5475816,8.93192718 64.7032198,9.58908921 64.1348877,9.89698178 C63.8443935,10.0509281 63.4972469,10.218261 63.1235821,10.218261 C62.6806086,10.218261 62.2792203,9.99433912 62.2370323,9.84100132 C62.1954471,9.64506968 62.1677236,9.5051185 62.1677236,9.32318198 C62.1677236,9.18383929 62.3479264,9.07126987 62.4033734,9.07126987 C62.4449587,9.07126987 62.6251615,9.09926011 62.9301202,9.21122104 C63.2344762,9.30857838 63.5671584,9.4211478 63.9130996,9.4211478 C64.536276,9.4211478 64.7164789,9.04327964 64.7164789,8.81996624 C64.7164789,8.5400639 64.3428141,8.10682375 64.0245964,7.81353477 C63.6364672,7.47765196 62.9717055,6.90446064 62.9717055,6.35865107 C62.9717055,5.79945487 63.872117,4.89098922 64.3566759,4.56910152 C64.5091552,4.47174418 64.689358,4.42975883 64.8550965,4.42975883 L64.8689582,4.42975883 L64.8689582,4.42915035 Z" id="Path"></path>
                </g>
            </g>
        </g>
    </g>
</svg>